<?xml version="1.0" encoding="utf-8"?><svg viewBox="0 0 27 33" xmlns="http://www.w3.org/2000/svg" xmlns:xlink="http://www.w3.org/1999/xlink"><style>:root>svg{display:none}:root>svg:target{display:block}</style><svg fill="none" viewBox="0 0 27 33" id="apple-logo" xmlns="http://www.w3.org/2000/svg"><path d="M22.696 17.888a7.356 7.356 0 013.474-6.123 7.562 7.562 0 00-5.885-3.18c-2.476-.26-4.876 1.48-6.137 1.48-1.287 0-3.23-1.455-5.321-1.412a7.902 7.902 0 00-6.595 4.022C-.62 17.612 1.507 24.868 4.239 28.86c1.366 1.954 2.964 4.137 5.054 4.06 2.045-.085 2.809-1.304 5.277-1.304 2.446 0 3.163 1.304 5.295 1.254 2.195-.035 3.577-1.962 4.896-3.935A16.164 16.164 0 0027 24.374c-2.579-1.09-4.301-3.686-4.304-6.486zM18.668 5.96A7.184 7.184 0 0020.31.813a7.31 7.31 0 00-4.73 2.447 6.898 6.898 0 00-1.686 4.956 6.115 6.115 0 004.773-2.256z" fill="#B2B2B2"/></svg><svg fill="none" viewBox="0 0 27 30" id="google-paly-logo" xmlns="http://www.w3.org/2000/svg"><path d="M.589 29.406l13.9-14.417L.6.6C.23.823 0 1.34 0 2.02v25.978c.005.679.226 1.16.589 1.408zM14.986 14.591l4.14-4.294L2.266.707A1.815 1.815 0 001.33.447L14.984 14.59l.002.001zM14.987 15.39L1.29 29.596c.344.006.682-.087.978-.269l16.894-9.615-4.175-4.322zM25.234 13.776l-5.61-3.197-4.254 4.412 4.285 4.44 5.578-3.189c1.186-.677 1.186-1.792.001-2.466z" fill="#B2B2B2"/></svg><svg fill="none" viewBox="0 0 24 24" id="location" xmlns="http://www.w3.org/2000/svg"><path d="M12 13.43a3.12 3.12 0 100-6.24 3.12 3.12 0 000 6.24z" stroke="#666" stroke-width="1.5"/><path d="M3.62 8.49c1.97-8.66 14.8-8.65 16.76.01 1.15 5.08-2.01 9.38-4.78 12.04a5.193 5.193 0 01-7.21 0c-2.76-2.66-5.92-6.97-4.77-12.05z" stroke="#666" stroke-width="1.5"/></svg><svg fill="none" viewBox="0 0 24 24" id="sms" xmlns="http://www.w3.org/2000/svg"><path d="M17 20.5H7c-3 0-5-1.5-5-5v-7c0-3.5 2-5 5-5h10c3 0 5 1.5 5 5v7c0 3.5-2 5-5 5z" stroke="#666" stroke-width="1.5" stroke-miterlimit="10" stroke-linecap="round" stroke-linejoin="round"/><path d="M17 9l-3.13 2.5c-1.03.82-2.72.82-3.75 0L7 9" stroke="#666" stroke-width="1.5" stroke-miterlimit="10" stroke-linecap="round" stroke-linejoin="round"/></svg></svg>