<?xml version="1.0" encoding="utf-8"?><svg viewBox="0 0 27 33" xmlns="http://www.w3.org/2000/svg" xmlns:xlink="http://www.w3.org/1999/xlink"><style>:root>svg{display:none}:root>svg:target{display:block}</style><svg fill="none" viewBox="0 0 12 23" id="Facebook" xmlns="http://www.w3.org/2000/svg"><path d="M8.068 22.647V12.558h3.267l.488-3.932H8.069v-2.51c0-1.138.305-1.914 1.88-1.914l2.008-.001V.684C11.608.637 10.416.53 9.03.53c-2.896 0-4.878 1.832-4.878 5.197v2.9H.877v3.931h3.275v10.089h3.916z" fill="#121212" fill-opacity=".6"/></svg><svg fill="none" viewBox="0 0 20 21" id="Instagram" xmlns="http://www.w3.org/2000/svg"><path d="M6.668 10.588c0-1.909 1.491-3.456 3.332-3.456 1.841 0 3.334 1.547 3.334 3.456S11.841 14.044 10 14.044c-1.84 0-3.332-1.548-3.332-3.456zm-1.803 0c0 2.94 2.3 5.324 5.135 5.324 2.836 0 5.135-2.384 5.135-5.324S12.836 5.264 10 5.264s-5.135 2.384-5.135 5.324zm9.273-5.535c0 .246.07.487.203.692.131.204.319.364.538.458.22.094.46.119.693.071.233-.048.447-.166.615-.34a1.287 1.287 0 00.26-1.356 1.236 1.236 0 00-.441-.558 1.17 1.17 0 00-.667-.21 1.18 1.18 0 00-.849.364c-.225.233-.351.55-.351.88zM5.96 19.027c-.975-.046-1.505-.215-1.857-.357a3.098 3.098 0 01-1.15-.775 3.212 3.212 0 01-.748-1.192c-.137-.365-.3-.914-.344-1.925-.048-1.093-.058-1.421-.058-4.19s.01-3.096.058-4.19c.044-1.01.208-1.559.344-1.925.182-.484.398-.83.748-1.192.35-.364.683-.588 1.15-.776.352-.142.882-.31 1.857-.357 1.054-.05 1.371-.06 4.04-.06 2.67 0 2.987.011 4.042.06.975.046 1.504.216 1.857.357.467.188.8.413 1.15.776.35.362.566.708.748 1.192.137.365.3.915.344 1.925.048 1.094.058 1.421.058 4.19s-.01 3.096-.058 4.19c-.045 1.01-.208 1.56-.344 1.925-.182.484-.398.83-.748 1.192s-.683.587-1.15.775c-.352.143-.882.31-1.857.357-1.054.05-1.371.06-4.042.06-2.67 0-2.986-.01-4.04-.06zM5.878.283C4.813.333 4.086.51 3.45.765A4.89 4.89 0 001.68 1.96 5.088 5.088 0 00.525 3.797C.278 4.457.11 5.21.061 6.314.01 7.419 0 7.772 0 10.588s.01 3.169.06 4.274c.048 1.104.217 1.858.464 2.517a5.09 5.09 0 001.154 1.836c.556.576 1.113.93 1.771 1.196.637.256 1.363.431 2.428.482 1.066.05 1.407.063 4.122.063 2.716 0 3.057-.012 4.123-.063 1.065-.05 1.792-.226 2.427-.482a4.903 4.903 0 001.772-1.196 5.102 5.102 0 001.153-1.836c.247-.66.417-1.413.465-2.517.048-1.106.06-1.459.06-4.274 0-2.816-.012-3.169-.06-4.274-.049-1.104-.218-1.858-.465-2.517a5.121 5.121 0 00-1.153-1.836 4.879 4.879 0 00-1.77-1.196c-.637-.256-1.364-.432-2.428-.482C13.058.233 12.717.22 10.001.22S6.944.232 5.878.283z" fill="#121212" fill-opacity=".6"/></svg><svg fill="none" viewBox="0 0 20 18" id="Twitter" xmlns="http://www.w3.org/2000/svg"><path d="M17.841 5.003v.518c0 5.365-3.95 11.56-11.15 11.56-2.225 0-4.275-.674-6.025-1.815.3.026.625.052.925.052a7.755 7.755 0 004.875-1.736c-1.725-.026-3.175-1.219-3.65-2.825.25.051.475.077.75.077.35 0 .7-.052 1.025-.155-1.8-.363-3.15-1.996-3.15-3.966v-.052a3.749 3.749 0 001.775.519 4.111 4.111 0 01-1.75-3.396c0-.751.2-1.451.525-2.047 1.925 2.462 4.825 4.069 8.075 4.25a3.808 3.808 0 01-.1-.933c0-2.255 1.75-4.069 3.926-4.069 1.125 0 2.15.493 2.85 1.27a7.795 7.795 0 002.5-.985 4.165 4.165 0 01-1.726 2.255c.8-.104 1.55-.31 2.25-.648-.5.83-1.15 1.555-1.924 2.126z" fill="#121212" fill-opacity=".6"/></svg><svg fill="none" viewBox="0 0 27 33" id="apple-logo" xmlns="http://www.w3.org/2000/svg"><path d="M22.696 17.888a7.356 7.356 0 013.474-6.123 7.562 7.562 0 00-5.885-3.18c-2.476-.26-4.876 1.48-6.137 1.48-1.287 0-3.23-1.455-5.321-1.412a7.902 7.902 0 00-6.595 4.022C-.62 17.612 1.507 24.868 4.239 28.86c1.366 1.954 2.964 4.137 5.054 4.06 2.045-.085 2.809-1.304 5.277-1.304 2.446 0 3.163 1.304 5.295 1.254 2.195-.035 3.577-1.962 4.896-3.935A16.164 16.164 0 0027 24.374c-2.579-1.09-4.301-3.686-4.304-6.486zM18.668 5.96A7.184 7.184 0 0020.31.813a7.31 7.31 0 00-4.73 2.447 6.898 6.898 0 00-1.686 4.956 6.115 6.115 0 004.773-2.256z" fill="#B2B2B2"/></svg><svg fill="none" viewBox="0 0 27 30" id="google-paly-logo" xmlns="http://www.w3.org/2000/svg"><path d="M.589 29.406l13.9-14.417L.6.6C.23.823 0 1.34 0 2.02v25.978c.005.679.226 1.16.589 1.408zM14.986 14.591l4.14-4.294L2.266.707A1.815 1.815 0 001.33.447L14.984 14.59l.002.001zM14.987 15.39L1.29 29.596c.344.006.682-.087.978-.269l16.894-9.615-4.175-4.322zM25.234 13.776l-5.61-3.197-4.254 4.412 4.285 4.44 5.578-3.189c1.186-.677 1.186-1.792.001-2.466z" fill="#B2B2B2"/></svg><svg fill="none" viewBox="0 0 24 24" id="location" xmlns="http://www.w3.org/2000/svg"><path d="M12 13.43a3.12 3.12 0 100-6.24 3.12 3.12 0 000 6.24z" stroke="#666" stroke-width="1.5"/><path d="M3.62 8.49c1.97-8.66 14.8-8.65 16.76.01 1.15 5.08-2.01 9.38-4.78 12.04a5.193 5.193 0 01-7.21 0c-2.76-2.66-5.92-6.97-4.77-12.05z" stroke="#666" stroke-width="1.5"/></svg><svg fill="none" viewBox="0 0 24 24" id="sms" xmlns="http://www.w3.org/2000/svg"><path d="M17 20.5H7c-3 0-5-1.5-5-5v-7c0-3.5 2-5 5-5h10c3 0 5 1.5 5 5v7c0 3.5-2 5-5 5z" stroke="#666" stroke-width="1.5" stroke-miterlimit="10" stroke-linecap="round" stroke-linejoin="round"/><path d="M17 9l-3.13 2.5c-1.03.82-2.72.82-3.75 0L7 9" stroke="#666" stroke-width="1.5" stroke-miterlimit="10" stroke-linecap="round" stroke-linejoin="round"/></svg></svg>